<svg version="1.1" id="Layer_1" xmlns="http://www.w3.org/2000/svg" xmlns:xlink="http://www.w3.org/1999/xlink" x="0px" y="0px"
	 viewBox="0 0 512 512" style="enable-background:new 0 0 512 512;" xml:space="preserve">
<g>
	<g>
		<g>
			<path d="M256,0C114.618,0,0,114.618,0,256s114.618,256,256,256s256-114.618,256-256S397.382,0,256,0z M256,469.333
				c-117.818,0-213.333-95.515-213.333-213.333S138.182,42.667,256,42.667S469.333,138.182,469.333,256S373.818,469.333,256,469.333
				z"/>
			<path d="M112.915,249.752c8.331,8.331,21.839,8.331,30.17,0l27.582-27.582l27.582,27.582c8.331,8.331,21.839,8.331,30.17,0
				c8.331-8.331,8.331-21.839,0-30.17L200.837,192l27.582-27.582c8.331-8.331,8.331-21.839,0-30.17s-21.839-8.331-30.17,0
				l-27.582,27.582l-27.582-27.582c-8.331-8.331-21.839-8.331-30.17,0s-8.331,21.839,0,30.17L140.497,192l-27.582,27.582
				C104.584,227.913,104.584,241.42,112.915,249.752z"/>
			<path d="M399.085,134.248c-8.331-8.331-21.839-8.331-30.17,0l-27.582,27.582l-27.582-27.582c-8.331-8.331-21.839-8.331-30.17,0
				s-8.331,21.839,0,30.17L311.163,192l-27.582,27.582c-8.331,8.331-8.331,21.839,0,30.17c8.331,8.331,21.839,8.331,30.17,0
				l27.582-27.582l27.582,27.582c8.331,8.331,21.839,8.331,30.17,0c8.331-8.331,8.331-21.839,0-30.17L371.503,192l27.582-27.582
				C407.416,156.087,407.416,142.58,399.085,134.248z"/>
			<path d="M384,298.667h-42.667H256H128c-11.782,0-21.333,9.551-21.333,21.333s9.551,21.333,21.333,21.333h106.667V384
				c0,35.992,29.021,64,64.427,64c35.361,0,63.573-27.986,63.573-64v-42.667H384c11.782,0,21.333-9.551,21.333-21.333
				S395.782,298.667,384,298.667z M320,384c0,12.373-9.033,21.333-20.907,21.333c-12.174,0-21.76-9.251-21.76-21.333v-42.667H320
				V384z"/>
		</g>
	</g>
</g>
</svg>

